{"title":"Later, With Jools Holland.s36eo4.(7th May 2010)[DTV-RIP-Divx]","uid":5543597,"size":766795332,"categoryP":"video","categoryS":"music_videos","magnet":"?xt=urn:btih:a97e5c288ee34eb7b24ca9525b63cbb2f8090a5b&amp;dn=Later%2C+With+Jools+Holland.s36eo4.%287th+May+2010%29%5BDTV-RIP-Divx%5D&amp;tr=udp%3A%2F%2Ftracker.openbittorrent.com%3A80&amp;tr=udp%3A%2F%2Fopen.demonii.com%3A1337&amp;tr=udp%3A%2F%2Ftracker.coppersurfer.tk%3A6969&amp;tr=udp%3A%2F%2Fexodus.desync.com%3A6969","seeders":1,"leechers":0,"uploader":"seanprince","files":-1,"time":1273315314,"description":"Later, With Jools Holland.s36eo4.(7th May 2010)[DTV-RIP-Divx]\n\n\nFirst Shown On BBC 2 On Friday 7th May 2010\n\n\nDescription:\n\nJoining Jools are London-based Mumford &amp; Sons, who have been gradually accumulating fans and selling lots of copies of their debut album Sigh No More, from which they perform a few numbers.\n\nHarpist Joanna Newsom returns to the studio to play a couple of songs from her recent acclaimed Have One On Me triple album; and Courtney Love and Hole make a welcome return to the studio for the first time since 1998 to perform tracks from their new album Nobody's Daughter.\n\nIggy Pop pops in to discuss the reissue of his incendiary classic album Raw Power, and Ozzy Osbourne is on hand to chat about his career. Finally, from Benin, West Africa, Angelique Kidjo performs numbers from her new album Oyo, which pays tribute to the music that inspired Angelique's childhood, such as classic songs by Curtis Mayfield and James Brown.\n\n\nOzzy Osbourne\n\ncomes to talk to us ahead of the summer release of his new album, Scream, and the revival of his festival Ozzfest.\n\n\nIggy Pop\n\nIggy Pop will be chatting about his current UK tour dates with the Stooges, who are soon to re-release their classic 1973 record, Raw Power.\n\n\nHole\n\nHole have been on a hiatus since 1998's Celebrity Skin, but twelve years on Courtney Love has reformed the band with new members to release a fourth album, Nobody's Daughter.\n\n\nJoanna Newsom\n\nJoanna Newsom brings her Appalachian-folk back to Later for the third time. She continues to draw inspiration from her love of nature and the elements on new album Have One On Me.\n\n\nMumford and Sons\n\nIt's a debut this week for Mumford and Sons, who are part of the burgeoning West London folk scene. They worked on their top 10 debut, Sigh No More, with Arcade Fire producer, Markus Dravs.\n\n\nAngelique Kidjo\n\nGrammy-winning Beninese singer Angelique Kidjo released Oyo in January, an album of covers by artists who inspired her, including Aretha Franklin and Curtis Mayfield.\n\n\nIan Hunter\n\nIan Hunter, famed frontman of Mott the Hoople, comes to Later with his Rant Band for the first time to play a track from latest album, Man Overboard, plus an old Mott the Hoople song.\n\n\nLissie\n\nLissie makes her TV debut on Later this week. The singer-songwriter from Illinois has been compared to Stevie Nicks and will release her major label debut in the summer.\n\n\nGeneral\n\n\nComplete name : Later.s36eo4.divx\nFormat : AVI\nFormat/Info : Audio Video Interleave\nFile size : 731 MiB\nDuration : 1h 5mn\nOverall bit rate : 1 566 Kbps\n\nVideo\nID : 0\nFormat : MPEG-4 Visual\nFormat settings, BVOP : Yes\nFormat settings, QPel : No\nFormat settings, GMC : No warppoints\nFormat settings, Matrix : Default (H.263)\nMuxing mode : Packed bitstream\nCodec ID : DX50\nCodec ID/Hint : DivX 5\nDuration : 1h 5mn\nBit rate : 1 301 Kbps\nWidth : 688 pixels\nHeight : 384 pixels\nDisplay aspect ratio : 16:9\nFrame rate : 25.000 fps\nResolution : 8 bits\nColorimetry : 4:2:0\nScan type : Progressive\nBits/(Pixel*Frame) : 0.197\nStream size : 607 MiB (83%)\nTitle : Video\nWriting library : DivX 6.8.2 (UTC 2008-05-17)\n\nAudio\nID : 1\nFormat : AC-3\nFormat/Info : Audio Coding 3\nCodec ID : 2000\nDuration : 1h 5mn\nBit rate mode : Constant\nBit rate : 256 Kbps\nChannel(s) : 2 channels\nChannel positions : Front: L R\nSampling rate : 48.0 KHz\nStream size : 120 MiB (16%)\nAlignment : Split accross interleaves\nInterleave, duration : 40 ms (1.00 video frame)\nInterleave, preload duration : 500 ms \n","torrent":{"xt":"urn:btih:a97e5c288ee34eb7b24ca9525b63cbb2f8090a5b","amp;dn":"Later%2C+With+Jools+Holland.s36eo4.%287th+May+2010%29%5BDTV-RIP-Divx%5D","amp;tr":["udp%3A%2F%2Ftracker.openbittorrent.com%3A80","udp%3A%2F%2Fopen.demonii.com%3A1337","udp%3A%2F%2Ftracker.coppersurfer.tk%3A6969","udp%3A%2F%2Fexodus.desync.com%3A6969"],"infoHash":"a97e5c288ee34eb7b24ca9525b63cbb2f8090a5b","infoHashBuffer":{"type":"Buffer","data":[169,126,92,40,142,227,78,183,178,76,169,82,91,99,203,178,248,9,10,91]},"announce":[],"urlList":[]}}